<?xml version="1.0" standalone="no"?>
<!DOCTYPE svg PUBLIC "-//W3C//DTD SVG 20010904//EN"
 "http://www.w3.org/TR/2001/REC-SVG-20010904/DTD/svg10.dtd">
<svg version="1.0" xmlns="http://www.w3.org/2000/svg"
 width="500.000000pt" height="236.000000pt" viewBox="0 0 500.000000 236.000000"
 preserveAspectRatio="xMidYMid meet">

<g transform="translate(0.000000,236.000000) scale(0.100000,-0.100000)"
fill="#000000" stroke="none">
<path d="M1140 1428 c1 -102 2 -111 15 -94 15 20 15 20 15 0 1 -11 6 -4 14 17
32 90 82 144 158 170 l53 18 -127 1 -128 0 0 -112z"/>
<path d="M1400 1147 c0 -413 0 -411 -45 -435 -15 -9 22 -11 154 -12 142 0 172
2 158 13 -34 25 -37 65 -37 443 l0 374 22 0 c68 0 163 -84 195 -172 16 -44 19
-47 24 -27 6 22 7 22 10 4 2 -11 5 29 8 89 l6 108 25 -20 25 -20 0 -372 0
-372 -28 -24 -28 -24 145 0 146 0 0 206 0 206 28 -6 c38 -9 71 -35 110 -85 17
-23 32 -37 32 -29 0 10 3 9 10 -2 6 -10 10 33 9 130 0 90 -4 137 -9 125 -8
-19 -9 -19 -9 -1 -1 14 -9 7 -29 -25 -31 -48 -58 -69 -109 -87 l-33 -11 0 205
0 204 28 0 c37 0 120 -40 164 -79 20 -18 48 -55 62 -83 14 -29 26 -43 26 -33
0 18 0 18 15 -1 13 -17 15 -8 12 91 l-2 110 -542 2 -543 3 0 -393z"/>
<path d="M2773 1521 c-138 -47 -234 -168 -263 -331 -35 -194 77 -406 246 -470
79 -29 200 -27 276 4 64 26 127 73 158 117 29 40 16 55 -23 25 -62 -46 -97
-58 -154 -54 -94 8 -172 82 -224 216 -20 48 -23 76 -24 177 0 147 24 233 84
296 l38 39 -31 0 c-17 -1 -54 -9 -83 -19z"/>
<path d="M2942 1527 c57 -18 81 -43 73 -75 -3 -15 -15 -36 -24 -47 -62 -68
-51 -171 21 -211 39 -22 120 -17 159 9 44 29 65 87 50 137 -23 78 -121 156
-235 186 -62 17 -96 17 -44 1z"/>
<path d="M3265 1516 l30 -24 0 -372 0 -372 -28 -24 -28 -24 170 0 170 0 -24
25 -25 24 0 369 0 369 26 27 27 26 -174 0 -174 0 30 -24z"/>
<path d="M3659 1514 l31 -26 0 -365 c0 -239 -4 -371 -11 -384 -6 -11 -20 -24
-32 -29 -14 -6 41 -9 152 -9 l175 -1 -22 20 c-11 11 -24 35 -27 52 -3 18 -5
188 -3 376 l3 344 28 24 28 24 -176 0 -177 0 31 -26z"/>
<path d="M2440 879 c-18 -43 -84 -115 -124 -136 -17 -9 -49 -22 -71 -29 -36
-12 -27 -13 103 -13 l142 -1 0 106 c0 90 -2 105 -14 95 -11 -9 -15 -9 -18 0
-2 7 -11 -3 -18 -22z"/>
<path d="M1083 565 c-2 -30 1 -55 5 -55 5 0 7 14 4 30 -6 40 13 38 28 -2 l11
-33 18 34 c19 35 38 29 26 -9 -5 -14 -2 -20 9 -20 13 0 16 11 14 55 -3 61 -15
67 -37 17 -8 -18 -17 -32 -21 -32 -3 0 -12 16 -19 35 -19 53 -36 44 -38 -20z"/>
<path d="M1304 565 c-12 -30 -18 -55 -14 -55 10 0 26 33 29 61 2 19 19 -1 26
-31 4 -17 13 -30 22 -30 8 0 13 6 10 13 -30 76 -40 97 -46 97 -3 0 -16 -25
-27 -55z"/>
<path d="M1465 565 c0 -30 3 -55 8 -55 4 0 7 17 7 37 l0 37 39 -38 39 -38 3
52 c2 29 1 54 -3 57 -5 2 -8 -13 -8 -33 l0 -38 -38 37 c-21 20 -40 37 -42 37
-3 0 -5 -25 -5 -55z"/>
<path d="M1680 605 c0 -9 -9 -34 -19 -55 -11 -22 -17 -40 -14 -40 11 0 32 35
33 53 0 30 18 18 24 -18 5 -25 12 -35 26 -35 18 0 18 2 -4 52 -23 52 -46 74
-46 43z"/>
<path d="M1895 600 c20 -22 31 -20 22 5 -4 8 -14 15 -23 15 -16 0 -16 -2 1
-20z"/>
<path d="M2015 565 c0 -43 3 -55 16 -55 12 0 14 8 11 31 -4 29 -3 31 18 24 15
-5 20 -4 16 4 -4 6 -14 11 -22 11 -8 0 -14 9 -14 20 0 11 -6 20 -12 20 -9 0
-13 -18 -13 -55z"/>
<path d="M2060 616 c0 -2 7 -9 15 -16 12 -10 15 -10 15 4 0 9 -7 16 -15 16 -8
0 -15 -2 -15 -4z"/>
<path d="M2175 565 c0 -43 3 -55 15 -55 11 0 15 9 14 28 -1 15 -3 39 -3 55 -1
15 -7 27 -13 27 -9 0 -13 -18 -13 -55z"/>
<path d="M1830 584 c-13 -34 -13 -40 6 -58 21 -21 80 -21 88 0 10 25 7 34 -9
34 -8 0 -15 -9 -15 -20 0 -13 -7 -20 -20 -20 -26 0 -44 43 -30 71 8 13 7 19 0
19 -6 0 -15 -12 -20 -26z"/>
<path d="M2236 596 c3 -9 1 -22 -4 -29 -13 -16 -4 -57 12 -57 17 0 15 92 -2
97 -7 3 -10 -1 -6 -11z"/>
<path d="M2070 520 c-13 -8 -12 -10 3 -10 9 0 17 5 17 10 0 12 -1 12 -20 0z"/>
</g>
</svg>
