<?xml version="1.0" standalone="no"?>
<!DOCTYPE svg PUBLIC "-//W3C//DTD SVG 20010904//EN"
 "http://www.w3.org/TR/2001/REC-SVG-20010904/DTD/svg10.dtd">
<svg version="1.0" xmlns="http://www.w3.org/2000/svg"
 width="500.000000pt" height="156.000000pt" viewBox="0 0 500.000000 156.000000"
 preserveAspectRatio="xMidYMid meet">

<g transform="translate(0.000000,156.000000) scale(0.100000,-0.100000)"
fill="#000000" stroke="none">
<path d="M1380 1198 c0 -77 3 -108 10 -98 9 13 10 13 10 0 1 -8 14 12 29 46
35 75 90 130 150 149 45 13 44 14 -76 14 l-123 1 0 -112z"/>
<path d="M1630 912 c0 -367 -1 -400 -17 -414 -10 -9 -25 -18 -33 -21 -8 -3 65
-6 162 -6 l177 -1 -24 25 -25 24 0 391 0 390 21 0 c12 0 44 -12 71 -27 53 -29
99 -86 123 -151 9 -24 14 -30 15 -17 1 20 1 20 16 0 13 -18 14 -10 12 90 l-3
110 -247 3 -248 2 0 -398z"/>
<path d="M3235 1295 c-44 -8 -81 -14 -82 -14 -1 -1 9 -12 22 -26 l25 -24 0
-360 0 -360 -26 -20 -27 -21 149 0 c82 0 144 4 138 8 -30 20 -34 55 -34 300
l0 250 31 11 c65 23 149 9 149 -24 0 -9 -13 -34 -30 -57 l-30 -41 0 -199 c0
-198 0 -199 -25 -223 l-24 -25 144 0 145 0 -20 20 c-19 19 -20 33 -20 238 0
256 -8 285 -81 323 -37 18 -54 21 -118 16 -42 -3 -86 -9 -98 -12 -22 -7 -22
-6 -25 121 l-3 129 -40 2 c-22 0 -76 -5 -120 -12z"/>
<path d="M2285 1046 c-64 -30 -107 -76 -141 -151 -66 -144 -12 -323 122 -401
52 -30 140 -41 199 -25 54 14 127 62 154 99 21 30 21 31 2 27 -11 -2 -31 -11
-44 -20 -49 -31 -86 -36 -128 -15 -80 41 -129 147 -129 278 0 87 19 166 51
206 l20 26 -28 0 c-15 0 -50 -11 -78 -24z"/>
<path d="M2417 1055 c28 -20 51 -81 59 -159 l7 -66 77 0 78 0 5 33 c12 83
-117 206 -218 207 -29 0 -29 0 -8 -15z"/>
<path d="M2836 1055 c-59 -21 -106 -65 -145 -136 -34 -60 -36 -70 -36 -154 0
-78 4 -97 27 -140 70 -134 196 -190 332 -151 65 19 168 103 144 117 -7 4 -24
-1 -40 -12 -71 -51 -128 -42 -191 31 -62 73 -89 190 -67 295 13 64 39 123 65
149 15 15 14 16 -17 16 -18 -1 -50 -7 -72 -15z"/>
<path d="M3003 1049 c24 -14 21 -42 -8 -85 -34 -50 -32 -88 4 -125 34 -34 83
-39 132 -14 39 21 52 56 39 104 -12 45 -50 83 -110 110 -48 22 -90 29 -57 10z"/>
<path d="M1080 335 c0 -25 5 -45 10 -45 6 0 10 10 10 23 1 22 1 22 16 2 14
-19 16 -19 28 -2 17 23 24 22 29 -5 2 -13 5 -2 6 25 1 52 -10 61 -27 22 -6
-14 -15 -25 -20 -25 -5 0 -14 11 -20 25 -18 39 -32 30 -32 -20z"/>
<path d="M1270 338 c-22 -49 -20 -55 9 -36 17 11 25 11 42 0 12 -7 22 -12 24
-10 6 7 -35 88 -45 88 -6 0 -19 -19 -30 -42z m40 -3 c0 -8 -4 -15 -10 -15 -5
0 -10 7 -10 15 0 8 5 15 10 15 6 0 10 -7 10 -15z"/>
<path d="M1417 373 c-11 -10 -8 -83 3 -83 6 0 10 9 10 20 0 11 4 20 8 20 5 0
17 -9 27 -20 27 -30 35 -25 35 25 0 25 -4 45 -10 45 -5 0 -10 -12 -10 -27 l-1
-28 -24 28 c-26 29 -28 30 -38 20z"/>
<path d="M1585 340 c-10 -22 -15 -44 -10 -48 4 -4 10 -1 12 6 3 6 15 12 28 12
13 0 25 -6 28 -12 2 -7 7 -10 11 -7 9 9 -25 89 -39 89 -7 0 -20 -18 -30 -40z
m31 -17 c-10 -10 -19 5 -10 18 6 11 8 11 12 0 2 -7 1 -15 -2 -18z"/>
<path d="M1735 356 c-24 -36 -5 -66 40 -66 28 0 35 4 35 20 0 11 -4 20 -10 20
-5 0 -10 -7 -10 -15 0 -21 -27 -19 -38 3 -14 26 -3 42 29 42 18 0 28 4 24 10
-12 19 -54 11 -70 -14z"/>
<path d="M1887 373 c-4 -3 -7 -24 -7 -45 l0 -38 43 1 c37 1 39 2 13 8 -35 7
-37 23 -4 33 l23 6 -22 1 c-28 1 -31 21 -3 21 11 0 20 5 20 10 0 11 -53 14
-63 3z"/>
<path d="M2030 335 c0 -42 13 -60 23 -32 4 10 7 10 18 0 7 -7 17 -13 22 -13 5
0 7 6 4 13 -2 6 0 20 5 30 13 25 -7 47 -43 47 -28 0 -29 -2 -29 -45z m53 10
c1 -5 -6 -11 -15 -13 -11 -2 -18 3 -18 13 0 17 30 18 33 0z"/>
</g>
</svg>
